name Walk4.mot
datacolumns 19
datarows 17
range 1.25000000 1.33000000
endheader

                time	   L_ground_force_vx	   L_ground_force_vy	   L_ground_force_vz	   L_ground_force_px	   L_ground_force_py	   L_ground_force_pz	   R_ground_force_vx	   R_ground_force_vy	   R_ground_force_vz	   R_ground_force_px	   R_ground_force_py	   R_ground_force_pz	   L_ground_torque_x	   L_ground_torque_y	   L_ground_torque_z	   R_ground_torque_x	   R_ground_torque_y	   R_ground_torque_z	
          1.25000000	          0.00000000	         -0.00000005	          0.00000001	         -0.00000000	          0.00000000	         -0.00000000	         -3.74590985	         94.23141424	          8.98367432	         -0.00215814	          0.00000000	          0.00156709	          0.00000000	          0.00000000	          0.00000000	          0.00000000	         -0.12574369	          0.00000000	
          1.25500000	          0.00000000	         -0.00000007	          0.00000001	         -0.00000000	          0.00000000	         -0.00000000	         -9.29075100	        139.27690914	         11.36248953	         -0.05429995	          0.00000000	          0.07569550	          0.00000000	          0.00000000	          0.00000000	          0.00000000	         -0.19116623	          0.00000000	
          1.26000000	          0.00000001	         -0.00000008	          0.00000001	         -0.00000000	          0.00000000	         -0.00000000	        -15.85848952	        189.14045010	         13.81429475	         -0.10261812	          0.00000000	          0.14504984	          0.00000000	          0.00000000	          0.00000000	          0.00000000	         -0.25330610	          0.00000000	
          1.26500000	          0.00000001	         -0.00000009	          0.00000001	         -0.00000000	          0.00000000	         -0.00000000	        -23.43007049	        241.23935400	         16.05009298	         -0.14440354	          0.00000000	          0.20596388	          0.00000000	          0.00000000	          0.00000000	          0.00000000	         -0.30607236	          0.00000000	
          1.27000000	          0.00000001	         -0.00000010	          0.00000001	         -0.00000000	          0.00000000	         -0.00000000	        -32.03084124	        292.82149074	         17.66964008	         -0.17834000	          0.00000000	          0.25669145	          0.00000000	          0.00000000	          0.00000000	          0.00000000	         -0.34291998	          0.00000000	
          1.27500000	          0.00000001	         -0.00000010	          0.00000001	         -0.00000000	          0.00000000	         -0.00000000	        -41.67013642	        342.02453652	         18.26154993	         -0.20418705	          0.00000000	          0.29693027	          0.00000000	          0.00000000	          0.00000000	          0.00000000	         -0.35694893	          0.00000000	
          1.28000000	          0.00000002	         -0.00000008	          0.00000000	         -0.00000000	          0.00000000	         -0.00000000	        -52.22719203	        387.88293914	         17.53589245	         -0.22243014	          0.00000000	          0.32731509	          0.00000000	          0.00000000	          0.00000000	          0.00000000	         -0.34081740	          0.00000000	
          1.28500000	          0.00000002	         -0.00000005	         -0.00000000	          0.00000000	          0.00000000	          0.00000000	        -63.40737433	        429.84938111	         15.39540055	         -0.23399925	          0.00000000	          0.34902673	          0.00000000	          0.00000000	          0.00000000	          0.00000000	         -0.28842524	          0.00000000	
          1.29000000	          0.00000002	          0.00000000	         -0.00000001	          0.00000000	          0.00000000	          0.00000000	        -74.76529541	        467.66997443	         11.94614255	         -0.24005427	          0.00000000	          0.36350121	          0.00000000	          0.00000000	          0.00000000	          0.00000000	         -0.19853893	          0.00000000	
          1.29500000	          0.00000002	          0.00000009	         -0.00000002	          0.00000000	          0.00000000	          0.00000000	        -85.80220724	        501.47534835	          7.45137129	         -0.24181934	          0.00000000	          0.37222453	          0.00000000	          0.00000000	          0.00000000	          0.00000000	         -0.07794659	          0.00000000	
          1.30000000	          0.00000001	          0.00000021	         -0.00000003	          0.00000000	          0.00000000	          0.00000000	        -96.10545947	        531.71477767	          2.25182944	         -0.24046505	          0.00000000	          0.37659804	          0.00000000	          0.00000000	          0.00000000	          0.00000000	          0.05923301	          0.00000000	
          1.30500000	          0.00000001	          0.00000037	         -0.00000005	          0.00000000	          0.00000000	          0.00000000	       -105.42165991	        558.96123888	         -3.28087604	         -0.23703014	          0.00000000	          0.37785308	          0.00000000	         -0.00000000	          0.00000000	          0.00000000	          0.19503305	          0.00000000	
          1.31000000	         -0.00000001	          0.00000058	         -0.00000007	          0.00000000	          0.00000000	          0.00000000	       -113.61331507	        583.81351186	         -8.76580499	         -0.23237868	          0.00000000	          0.37701472	          0.00000000	         -0.00000000	          0.00000000	          0.00000000	          0.31237005	          0.00000000	
          1.31500000	         -0.00000003	          0.00000084	         -0.00000009	          0.00000000	          0.00000000	          0.00000000	       -120.57489107	        606.91719716	        -13.85706030	         -0.22719379	          0.00000000	          0.37489634	          0.00000000	         -0.00000000	          0.00000000	          0.00000000	          0.39943743	          0.00000000	
          1.32000000	         -0.00000005	          0.00000114	         -0.00000011	          0.00000000	          0.00000000	          0.00000000	       -126.19325144	        628.97594761	        -18.29406513	         -0.22198943	          0.00000000	          0.37211260	          0.00000000	         -0.00000000	          0.00000000	          0.00000000	          0.45200007	          0.00000000	
          1.32500000	         -0.00000009	          0.00000146	         -0.00000014	          0.00000000	          0.00000000	          0.00000000	       -130.36672047	        650.66134600	        -21.91662752	         -0.21712660	          0.00000000	          0.36910601	          0.00000000	         -0.00000000	          0.00000000	          0.00000000	          0.47194538	          0.00000000	
          1.33000000	         -0.00000013	          0.00000178	         -0.00000016	          0.00000000	          0.00000000	          0.00000000	       -133.04156555	        672.47031332	        -24.64577502	         -0.21283067	          0.00000000	          0.36617499	          0.00000000	         -0.00000000	          0.00000000	          0.00000000	          0.46357630	          0.00000000	
